# xmcd
#
# Track frame offsets: 
#        150
#        10710
#        24095
#        34827
#        45145
#        56035
#        68977
#        79425
#        91872
#        111452
#        121490
#        131455
#        143387
#        156205
#        169142
#        182412
#        195605
#        208232
#        221997
#        232740
#
# Disc length: 3250 seconds
#
# Revision: 5
# Processed by: cddbd v1.5.2PL0 Copyright (c) Steve Scherf et al.
# Submitted via: ExactAudioCopy v0.99pb5
#
DISCID=0c0cb014
DTITLE=Various Artist - Country Classics Disc 2
DYEAR=1992
DGENRE=Country
TTITLE0=Floyd Cramer - San Antonio Rose
TTITLE1=Claude King - Wolverton Mountain
TTITLE2=Porter Wagoner - Green Green Grass Of Home
TTITLE3=Ferlin Husky - Wings Of A Dove
TTITLE4=Faron Young - Hello Walls
TTITLE5=Kitty Wells - Makin' Believe
TTITLE6=Jim Reeves - He'll Have To Go
TTITLE7=Eddy Arnold - You Don't Know Me
TTITLE8=Marty Robbins - El Paso
TTITLE9=Dave Dudley - Six Days On The Road
TTITLE10=Jimmy C. Newman - A Fallen Star
TTITLE11=Don Gibson - I Can't Stop Loving You
TTITLE12=Jim Reeves - Four Walls
TTITLE13=Bobby Helms - Fraulein
TTITLE14=Stuart Hamblen - This Ole House
TTITLE15=Jerry Lee Lewis - You Win Again
TTITLE16=Bill Anderson - Still
TTITLE17=Lefty Frizzell - Saginaw Michigan
TTITLE18=Hank Locklin - Please Help Me I'm Falling
TTITLE19=Roger Miller - King Of The Road
EXTD=DVC 2-1064-2  HD 2020-2
EXTT0=Floyd Kramer
EXTT1=Claude King
EXTT2=Porter Wagoner
EXTT3=Ferlin Huskey
EXTT4=Faron Young
EXTT5=Kitty Wells
EXTT6=Jim Reeves
EXTT7=Eddy Arnold
EXTT8=Marty Robbins
EXTT9=Dave Dudley
EXTT10=Jimmy Newman
EXTT11=Don Gibson
EXTT12=Jim Reeves
EXTT13=Bobby Helms
EXTT14=Stuart Hamblen
EXTT15=Jerry Lee Lewis
EXTT16=Bill Anderson
EXTT17=Lefty Frizzell
EXTT18=Hank Locklin
EXTT19=Roger Miller
PLAYORDER=
